<?xml version="1.0" standalone="no"?>
<!DOCTYPE svg PUBLIC "-//W3C//DTD SVG 20010904//EN"
 "http://www.w3.org/TR/2001/REC-SVG-20010904/DTD/svg10.dtd">
<svg version="1.0" xmlns="http://www.w3.org/2000/svg"
 width="1280.000000pt" height="731.000000pt" viewBox="0 0 1280.000000 731.000000"
 preserveAspectRatio="xMidYMid meet">

<g transform="translate(0.000000,731.000000) scale(0.100000,-0.100000)"
fill="#000000" stroke="none">
<path d="M5861 6401 c-1 -23 -47 -505 -386 -3991 -73 -756 -132 -1376 -131
-1377 1 -2 45 124 98 280 102 299 404 1182 541 1579 l82 238 413 0 c389 0 413
1 408 18 -55 174 -141 450 -501 1607 -500 1605 -523 1678 -524 1646z"/>
<path d="M7070 5834 c0 -10 -25 -282 -55 -603 -31 -321 -54 -585 -52 -588 6
-5 806 -45 824 -41 8 2 -133 253 -348 623 -198 341 -363 622 -365 624 -2 2 -4
-4 -4 -15z"/>
<path d="M6711 5425 c-177 -224 -321 -413 -321 -422 0 -8 48 -193 106 -411 59
-218 150 -561 204 -762 80 -299 99 -359 104 -330 3 19 17 152 31 295 15 143
66 658 115 1145 49 486 88 886 86 888 -2 2 -148 -180 -325 -403z"/>
<path d="M5110 5223 c0 -15 137 -1422 209 -2148 l58 -590 -161 -160 c-88 -89
-264 -261 -391 -384 l-229 -223 89 -86 c50 -48 212 -205 361 -349 l272 -263 6
62 c3 35 29 380 56 768 44 606 121 1459 220 2418 11 106 20 205 20 220 0 21
-65 121 -246 378 -260 369 -264 374 -264 357z"/>
</g>
</svg>
